<svg xmlns="http://www.w3.org/2000/svg" viewBox="0 0 600 400"><defs><linearGradient id="i" gradientTransform="rotate(90)"><stop offset="5%" stop-color="#020022"/><stop offset="55%" stop-color="#fff"/><stop offset="98%" stop-color="#fff" stop-opacity="0"/></linearGradient><linearGradient id="g" gradientTransform="rotate(90)"><stop offset="5%" stop-color="#211f44"/><stop offset="55%" stop-color="#fff"/><stop offset="98%" stop-color="#fff" stop-opacity="0"/></linearGradient><linearGradient id="e" gradientTransform="rotate(90)"><stop offset="5%" stop-color="#c0bee3"/><stop offset="55%" stop-color="#fff"/><stop offset="98%" stop-color="#fff" stop-opacity="0"/></linearGradient><linearGradient id="a"><stop offset="10%"/><stop offset="50%" stop-color="#fff"/><stop offset="90%"/></linearGradient><linearGradient id="b" gradientTransform="rotate(90)"><stop offset="10%" stop-color="#fff"/><stop offset="50%" stop-color="#fff" stop-opacity="0"/></linearGradient><ellipse id="h" cx="50%" cy="50%" rx="200" ry="50" fill="url(#b)" filter="url(#c)"/><filter id="c" x="-20%" y="-30%" width="140%" height="140%" filterUnits="objectBoundingBox" primitiveUnits="userSpaceOnUse" color-interpolation-filters="linearRGB"><feTurbulence type="fractalNoise" baseFrequency="0.055 0.05" numOctaves="2" seed="2" stitchTiles="stitch" x="0%" y="0%" width="100%" height="100%" result="turbulence"/><feColorMatrix in="turbulence" type="hueRotate" values="0" result="cloud"><animate attributeName="values" from="0" to="360" dur="5s" repeatCount="indefinite"/></feColorMatrix><feDisplacementMap in="SourceGraphic" in2="cloud" scale="20" xChannelSelector="R" yChannelSelector="R" x="0" y="0" width="100%" height="100%" result="displacementMap"/><feGaussianBlur in="displacementMap" stdDeviation="4"/></filter><path id="d" d="m0 101.111 5-1.105 5 .269 5 5.241 5 1.965 5 3.92 5 1.6 5 5.03 5 .203 5-2.084 5 2.164 5 2.042 5 .461 5-.23 5 .37 5-2.145 5-2.584 5 .385 5 .122 5-2.211 5 2.755 5 1.42 5 .515 5 2.938 5-1.838 5 2.058 5-.912 5-1.334 5-5.017 5-1.466 5-.568 5-2.18 5 .287 5-2.87 5 .75 5 4.54 5 .21 5 .865 5-1.54 5-2.459 5 .276 5-2.93 5-1.844 5 1.263 5-2.155 5-3.8 5 .74 5-.56 5 3.284 5 1.322 5-3.106 5 2.06 5-2.53 5 2.616 5 3.36 5-1.17 5 2.79 5 1.341 5 6.19 5-2.009 5 1.918 5-.606 5-4.297 5-.952 5 3.75 5-1.924 5-1.9 5 .095 5 3.612 5 3.144 5 2.36 5 3.95 5 2.434 5-.179 5 1.612 5 .542 5-1.559 5-.282 5-3.406 5 3.135 5 1.444 5 1.524 5-2.109 5 2.15 5 5.343 5 4.161 5 4.531 5 3.571 5 2.558 5-2.73 5 1.607 5 2.647 5 2.03 5-.265 5-.63 5-2.34 5-1.072 5-.888 5 2.22 5 .178 5-4.107 5 3.8 5-.8 5-4.687 5-.664 5 .293 5-4.564 5-7.53 5-2.7 5-1.379 5 1.375 5-2.267 5 .5 5 .386 5-3.42 5-.632 5 3.77 5 2.444 5-.522 5-3.417 5-2.406 5 1.768 5-1.965 5 4.852 5 2.413 5-1.886 5 .684 5-2.284 5 .598V360H0Z"/><mask id="f"><rect x="0%" y="0%" width="100%" height="100%" fill="url(#a)"/></mask></defs><use href="#d" x="-100" y="-20" transform-origin="50% 50%" transform="scale(2 1.5)" fill="url(#e)" mask="url(#f)"/><use href="#d" x="200" y="-20" transform-origin="50% 50%" transform="scale(2 1.5)" fill="url(#e)" mask="url(#f)"/><use href="#d" x="200" transform-origin="50% 50%" transform="scale(-1 1)" fill="url(#g)" mask="url(#f)"/><use href="#d" x="-100" transform-origin="50% 50%" transform="scale(-1 1)" fill="url(#g)" mask="url(#f)"/><use href="#h" x="500"><animateTransform attributeName="transform" type="translate" from="0 20" to="-1000 20" dur="30s" repeatCount="indefinite"/></use><use href="#h" x="500"><animateTransform attributeName="transform" type="translate" from="0 50" to="-1000 50" dur="30s" begin="10s" repeatCount="indefinite"/></use><use href="#h" x="500"><animateTransform attributeName="transform" type="translate" from="0 25" to="-1000 25" dur="30s" begin="8s" repeatCount="indefinite"/></use><use href="#h" x="500"><animateTransform attributeName="transform" type="translate" from="0 25" to="-1000 25" dur="30s" begin="15s" repeatCount="indefinite"/></use><use href="#d" y="100" fill="url(#i)" mask="url(#f)"/></svg>