<svg xmlns="http://www.w3.org/2000/svg" viewBox="0 0 600 400"><defs><linearGradient id="i" gradientTransform="rotate(90)"><stop offset="5%" stop-color="#020022"/><stop offset="55%" stop-color="#fff"/><stop offset="98%" stop-color="#fff" stop-opacity="0"/></linearGradient><linearGradient id="g" gradientTransform="rotate(90)"><stop offset="5%" stop-color="#211f44"/><stop offset="55%" stop-color="#fff"/><stop offset="98%" stop-color="#fff" stop-opacity="0"/></linearGradient><linearGradient id="e" gradientTransform="rotate(90)"><stop offset="5%" stop-color="#c0bee3"/><stop offset="55%" stop-color="#fff"/><stop offset="98%" stop-color="#fff" stop-opacity="0"/></linearGradient><linearGradient id="a"><stop offset="10%"/><stop offset="50%" stop-color="#fff"/><stop offset="90%"/></linearGradient><linearGradient id="b" gradientTransform="rotate(90)"><stop offset="10%" stop-color="#fff"/><stop offset="50%" stop-color="#fff" stop-opacity="0"/></linearGradient><path id="d" d="m0 101.111 5-1.105 5 .269 5 5.241 5 1.965 5 3.92 5 1.6 5 5.03 5 .203 5-2.084 5 2.164 5 2.042 5 .461 5-.23 5 .37 5-2.145 5-2.584 5 .385 5 .122 5-2.211 5 2.755 5 1.42 5 .515 5 2.938 5-1.838 5 2.058 5-.912 5-1.334 5-5.017 5-1.466 5-.568 5-2.18 5 .287 5-2.87 5 .75 5 4.54 5 .21 5 .865 5-1.54 5-2.459 5 .276 5-2.93 5-1.844 5 1.263 5-2.155 5-3.8 5 .74 5-.56 5 3.284 5 1.322 5-3.106 5 2.06 5-2.53 5 2.616 5 3.36 5-1.17 5 2.79 5 1.341 5 6.19 5-2.009 5 1.918 5-.606 5-4.297 5-.952 5 3.75 5-1.924 5-1.9 5 .095 5 3.612 5 3.144 5 2.36 5 3.95 5 2.434 5-.179 5 1.612 5 .542 5-1.559 5-.282 5-3.406 5 3.135 5 1.444 5 1.524 5-2.109 5 2.15 5 5.343 5 4.161 5 4.531 5 3.571 5 2.558 5-2.73 5 1.607 5 2.647 5 2.03 5-.265 5-.63 5-2.34 5-1.072 5-.888 5 2.22 5 .178 5-4.107 5 3.8 5-.8 5-4.687 5-.664 5 .293 5-4.564 5-7.53 5-2.7 5-1.379 5 1.375 5-2.267 5 .5 5 .386 5-3.42 5-.632 5 3.77 5 2.444 5-.522 5-3.417 5-2.406 5 1.768 5-1.965 5 4.852 5 2.413 5-1.886 5 .684 5-2.284 5 .598V360H0Z"/><path d="M2346 12781c-3-5 2-43 11-84l16-76-31-133c-52-218-75-429-76-683 0-244 10-320 65-486 78-235 155-376 287-526 296-337 366-427 494-631 112-179 153-293 162-457 3-60 2-105-2-100-5 6-37 78-72 160-85 201-115 261-200 389-137 207-197 281-387 466-239 234-320 293-589 425-318 156-368 168-744 185-129 5-266 15-305 20-38 6-173 15-300 20-126 5-275 13-330 18-143 11-330 1-330-18 0-10 20-18 70-26 39-7 104-21 145-32 41-12 131-28 200-37s204-31 300-50 223-39 281-45c58-5 121-15 140-20 19-6 86-24 149-41 132-34 170-48 335-119 66-28 199-79 295-112 285-98 414-166 622-325 116-89 180-157 257-272 108-162 136-224 261-586 51-147 160-664 160-760 0-37-240 212-282 292-62 119-89 67-48-93 15-57 39-111 89-194 38-63 75-131 83-150 47-113 208-712 238-885 11-66 29-154 40-196 11-41 29-127 40-190 11-62 29-148 39-189 16-62 36-260 27-260-1 0-23 29-47 65-45 67-56 75-65 51-9-23 82-241 151-361 35-60 80-144 100-185 21-41 46-87 57-102 33-48 7-31-92 57-52 46-96 83-97 81-5-4 58-198 74-231 23-45 60-82 135-131 37-25 87-68 110-96 81-96 103-115 153-133 28-10 53-21 57-24 9-8 61-304 93-531 14-102 33-225 41-274 8-48 13-90 10-93-7-7-40 62-60 125-20 58-88 155-135 189-16 13-64 65-105 115-41 51-92 113-114 137l-39 44-7-154c-9-210 10-341 70-476l23-52-42 26c-23 14-55 35-70 46-32 22-56 11-40-17 21-38 173-194 253-260 142-117 278-241 269-244-4-2-60 17-124 42s-119 46-121 46c-10 0 92-130 142-181 51-53 121-89 171-89 11 0 14-7 9-25-19-80-24-72 46-83 35-6 152-14 260-18 109-4 196-10 193-14-10-16-157-20-327-9-98 6-181 9-184 7-2-3 7-25 21-49 14-26 25-60 25-82 0-21 15-109 34-195 47-213 73-401 96-692 11-135 28-312 40-395 11-82 23-207 26-276 6-113 5-133-15-195-12-38-24-74-27-81-9-22 95-45 229-50 72-3 127-10 127-15 0-16-237 2-302 22-32 10-58 17-58 15s11-25 25-52c20-39 31-95 60-313 20-146 42-303 50-350s38-233 66-415c45-285 52-355 56-517l5-188h71l-7-64c-7-75-39-62 251-102 187-25 202-28 205-48 3-19 37-28 381-104 208-47 380-82 382-80 3 2-6 65-19 139-55 306-55 388 0 603 14 54 23 100 21 102s-51-17-110-42-137-51-174-59c-74-16-246-19-278-5-11 5-17 9-14 9 3 1 53 3 110 5 57 3 138 14 179 25 107 28 265 87 263 99-37 174-43 222-43 335 0 169 11 308 24 312 61 15 171 52 214 72 38 18 64 40 93 79 38 52 109 110 214 177 60 39 93 93 135 227 16 52 30 98 30 102 0 5-41-28-91-72-51-44-101-86-112-92-20-10-20-10 0 18 11 16 35 58 53 94s61 113 97 173c68 114 115 210 157 320 22 58 23 69 10 74-8 3-16 4-18 2s-60-80-129-174c-70-93-162-214-204-269l-78-98-7 38c-10 59-55 182-82 228-13 23-48 64-76 91-51 49-52 50-47 20 3-16 14-86 23-153l17-124-40-81c-23-45-48-102-57-127s-25-56-36-70l-20-25v26c0 42 48 410 76 579 14 85 46 234 71 330 41 163 43 179 34 235-6 33-15 123-21 200l-11 140 30 70 30 70-103 3-102 3 8 72c18 161 53 278 160 546 48 122 66 177 59 184s-14 7-19 1c-5-5-48-58-97-118-91-112-190-216-206-216-13 0-10 165 5 360 11 152 15 170 43 226 36 70 130 209 209 309 30 39 83 126 119 195 88 174 110 201 221 273l95 62-68 3c-95 4-218-14-262-39-21-11-46-34-55-50-22-37-76-100-184-214l-85-89 7 69c4 39 11 124 16 190 14 191 110 503 211 681 55 97 160 210 253 272 39 26 163 89 276 141 337 153 521 247 592 301 36 28 106 93 154 146 101 109 102 129 8 95-33-11-113-32-179-47-147-32-232-65-395-154-69-37-186-94-260-126-145-62-225-106-417-228-126-79-173-124-214-201-25-48-39-57-39-26 0 57-62 749-75 830-8 53-24 170-35 261s-29 215-40 275c-38 216-43 277-30 391 13 122 50 276 111 455 137 409 301 618 593 759 421 202 493 230 736 285 209 47 294 54 390 30 58-14 93-16 179-11 83 5 136 2 237-13 93-14 178-20 304-19 116 0 237-7 359-21 101-11 187-18 192-15 19 12 6 23-63 56-44 21-101 60-142 98-112 102-258 187-359 210-38 8-62 7-115-6-55-13-120-15-379-12l-312 3-113-59-113-59-290-1c-316-1-299 2-405-65-30-18-104-58-165-87-77-37-132-73-185-119-41-36-109-91-150-124-94-73-88-65-166-207-93-169-158-308-185-392-13-39-26-69-30-65-11 13-76 221-113 365-68 262-91 313-204 452-44 53-92 123-107 154s-52 153-82 271c-45 179-64 237-117 350-55 119-123 320-166 491-19 75-21 80-36 80-17 0-17-22-4-185 35-405 72-562 236-1002 102-275 132-367 178-558 20-82 40-165 45-183l10-34-57 54c-31 30-73 63-92 75-62 38-271 95-522 143-43 8-74 24-125 62-79 58-86 61-213 94-52 14-150 43-217 65-112 37-143 41-143 20 0-4 17-13 38-20 81-28 120-60 193-157 40-53 86-105 103-115s84-37 149-58c235-79 473-277 677-566 35-49 86-121 114-160 167-234 197-287 227-407 21-85 93-501 104-603 3-33 8-71 11-84 4-19-7-13-62 38-42 38-99 77-148 102-88 43-330 122-521 170-66 16-180 50-254 75-95 33-136 43-144 35-6-6-9-12-6-14 291-214 328-237 542-333 204-92 370-221 422-328 47-98 212-710 223-829l5-58-114 60c-63 33-164 79-224 102-143 53-160 64-285 184-148 142-267 244-400 344-147 111-209 145-328 182-170 53-216 71-266 105-37 24-53 31-62 23-10-8-10-15-1-30 10-16 6-24-24-56-20-21-43-48-51-61-16-23-16-23-33 25-9 26-20 100-24 163-6 97-12 127-39 190-18 41-32 90-32 108 0 19-11 91-25 160-13 70-36 192-50 272s-38 195-54 255c-35 133-49 262-55 500-3 99-10 205-16 235-18 89-14 225 8 310 11 41 44 130 72 197 56 132 118 214 209 275 79 53 119 98 137 152 40 123 63 144 175 166 40 8 78 26 140 68 76 52 155 87 277 123 48 14 55 42 12 47-14 2-47 10-75 19-143 46-357-10-481-127-65-61-122-98-306-194-121-64-148-74-148-59 0 27 36 254 59 370 31 160 129 511 162 583 55 118 176 289 273 385 82 81 106 98 241 168 242 127 210 120 640 128l370 6 180 36c99 19 225 47 280 60 110 28 274 43 578 53 147 5 187 9 187 20 0 14-30 23-135 44-120 24-227 27-600 13-222-8-428-11-495-7-165 11-224 7-410-26-91-16-217-36-280-45-278-36-460-126-661-325-90-88-178-219-257-381l-57-116-2 117c-2 141-15 194-54 229-35 31-36 39-4 100 30 60 45 174 34 261-12 99-65 356-111 540-40 165-70 257-134 422-19 48-42 134-52 190-13 75-22 103-33 103s-15-38-21-220c-4-121-12-278-18-349-10-120-41-300-53-312-3-3-50 50-104 118-54 67-127 155-163 194-43 46-73 90-89 130-45 109-92 196-124 225-17 16-69 52-114 80-76 46-89 59-143 142-33 50-60 94-60 99 0 11-17 10-24-1zm1799-6089 70-75-100 4-100 4-7-59c-7-55-18-88-18-54 0 8-16 46-37 84l-36 69 12 120c7 66 15 128 17 138 4 13 22-5 67-70 34-48 94-121 132-161zm665-547c136-104 383-327 458-414 59-68 56-71-38-50-25 6-134 13-243 17l-197 7v-267c0-251-12-528-27-608-9-52-28 97-53 434-11 154-22 289-25 300-18 84-24 256-11 355 13 96 28 281 23 281-1 0-34-9-72-21-50-14-107-21-200-24l-130-4 135 13c154 14 240 39 240 69 0 14 3 17 13 10 6-6 64-50 127-98zm730-765c17-33 20-59 20-160 0-67 5-187 11-268 8-105 8-167 0-217-6-38-15-124-21-191-7-91-21-159-54-275-24-85-46-163-49-174-12-41 6 94 25 195 11 58 20 110 21 115 1 6-3 9-10 8-6-2-31-5-55-8l-43-5 40 13c38 12 40 15 38 52-10 218-3 509 16 687 12 109 21 216 21 238 0 48 12 45 40-10zm-532-949c93-24 261-43 311-36 29 4 31 3 11-4-51-18-182-12-289 14-57 14-111 30-120 35-26 15 2 12 87-9zm430-716c-5-27-6-71-2-97 5-41 3-48-11-48-16 0-17 12-11 153 4 83 10 168 14 187 11 56 21-135 10-195zm19-611c106-47 137-56 246-65 59-5 143-18 187-29 43-11 89-20 102-21h23l-25-10c-31-13-116-7-285 20-114 18-276 54-296 67-7 4-18 64-13 64 2 0 29-12 61-26zm-187-813c0-14-10-19-48-24-26-3-63-2-82 3-19 4-27 8-17 9 9 1 17 8 17 16 0 12 14 15 65 15 57 0 65-2 65-19z" transform="matrix(-.04 0 0 -.04 460 460)" id="j" fill="#020022" stroke="none"/><ellipse id="h" cx="50%" cy="50%" rx="200" ry="50" fill="url(#b)" filter="url(#c)"/><filter id="c" x="-20%" y="-30%" width="140%" height="140%" filterUnits="objectBoundingBox" primitiveUnits="userSpaceOnUse" color-interpolation-filters="linearRGB"><feTurbulence type="fractalNoise" baseFrequency="0.055 0.05" numOctaves="2" seed="2" stitchTiles="stitch" x="0%" y="0%" width="100%" height="100%" result="turbulence"/><feColorMatrix in="turbulence" type="hueRotate" values="0" result="cloud"><animate attributeName="values" from="0" to="360" dur="5s" repeatCount="indefinite"/></feColorMatrix><feDisplacementMap in="SourceGraphic" in2="cloud" scale="20" xChannelSelector="R" yChannelSelector="R" x="0" y="0" width="100%" height="100%" result="displacementMap"/><feGaussianBlur in="displacementMap" stdDeviation="4"/></filter><mask id="f"><rect x="0%" y="0%" width="100%" height="100%" fill="url(#a)"/></mask></defs><use href="#d" x="-100" y="-20" transform-origin="50% 50%" transform="scale(2 1.5)" fill="url(#e)" mask="url(#f)"/><use href="#d" x="200" y="-20" transform-origin="50% 50%" transform="scale(2 1.5)" fill="url(#e)" mask="url(#f)"/><use href="#d" x="200" transform-origin="50% 50%" transform="scale(-1 1)" fill="url(#g)" mask="url(#f)"/><use href="#d" x="-100" transform-origin="50% 50%" transform="scale(-1 1)" fill="url(#g)" mask="url(#f)"/><use href="#h" x="500"><animateTransform attributeName="transform" type="translate" from="0 20" to="-1000 20" dur="30s" repeatCount="indefinite"/></use><use href="#h" x="500"><animateTransform attributeName="transform" type="translate" from="0 50" to="-1000 50" dur="30s" begin="10s" repeatCount="indefinite"/></use><use href="#h" x="500"><animateTransform attributeName="transform" type="translate" from="0 25" to="-1000 25" dur="30s" begin="8s" repeatCount="indefinite"/></use><use href="#h" x="500"><animateTransform attributeName="transform" type="translate" from="0 25" to="-1000 25" dur="30s" begin="15s" repeatCount="indefinite"/></use><use href="#d" y="100" fill="url(#i)" mask="url(#f)"/><use href="#j" x="-250"/><use href="#j" x="320"/></svg>