<?xml version="1.0" encoding="UTF-8" standalone="no"?>
<!-- Created with Inkscape (http://www.inkscape.org/) -->

<svg
   width="1280"
   height="720"
   viewBox="0 0 1280 720"
   version="1.1"
   id="svg5"
   inkscape:version="1.2.1 (9c6d41e410, 2022-07-14)"
   sodipodi:docname="mountains.svg"
   xmlns:inkscape="http://www.inkscape.org/namespaces/inkscape"
   xmlns:sodipodi="http://sodipodi.sourceforge.net/DTD/sodipodi-0.dtd"
   xmlns:xlink="http://www.w3.org/1999/xlink"
   xmlns="http://www.w3.org/2000/svg"
   xmlns:svg="http://www.w3.org/2000/svg">
  <sodipodi:namedview
     id="namedview7"
     pagecolor="#ffffff"
     bordercolor="#666666"
     borderopacity="1.0"
     inkscape:showpageshadow="2"
     inkscape:pageopacity="0.0"
     inkscape:pagecheckerboard="true"
     inkscape:deskcolor="#d1d1d1"
     inkscape:document-units="px"
     showgrid="false"
     inkscape:lockguides="false"
     inkscape:zoom="0.63020833"
     inkscape:cx="561.71901"
     inkscape:cy="525.22314"
     inkscape:window-width="1920"
     inkscape:window-height="1017"
     inkscape:window-x="-8"
     inkscape:window-y="-8"
     inkscape:window-maximized="1"
     inkscape:current-layer="layer1" />
  <defs
     id="defs2">
    <linearGradient
       inkscape:collect="always"
       id="linearGradient21288">
      <stop
         style="stop-color:#cccccc;stop-opacity:1;"
         offset="0"
         id="stop21284" />
      <stop
         style="stop-color:#ffffff;stop-opacity:1;"
         offset="1"
         id="stop21286" />
    </linearGradient>
    <linearGradient
       inkscape:collect="always"
       id="linearGradient21272">
      <stop
         style="stop-color:#999999;stop-opacity:1;"
         offset="0"
         id="stop21268" />
      <stop
         style="stop-color:#d8d8d8;stop-opacity:1;"
         offset="1"
         id="stop21270" />
    </linearGradient>
    <linearGradient
       inkscape:collect="always"
       id="linearGradient20096">
      <stop
         style="stop-color:#515151;stop-opacity:1;"
         offset="0"
         id="stop20092" />
      <stop
         style="stop-color:#ffffff;stop-opacity:1;"
         offset="1"
         id="stop20094" />
    </linearGradient>
    <linearGradient
       inkscape:collect="always"
       id="linearGradient18245">
      <stop
         style="stop-color:#000000;stop-opacity:1;"
         offset="0"
         id="stop18241" />
      <stop
         style="stop-color:#000000;stop-opacity:0;"
         offset="1"
         id="stop18243" />
    </linearGradient>
    <linearGradient
       inkscape:collect="always"
       id="linearGradient18235">
      <stop
         style="stop-color:#000000;stop-opacity:1;"
         offset="0"
         id="stop18231" />
      <stop
         style="stop-color:#ffffff;stop-opacity:1;"
         offset="1"
         id="stop18233" />
    </linearGradient>
    <clipPath
       clipPathUnits="userSpaceOnUse"
       id="clipPath18076">
      <use
         x="0"
         y="0"
         xlink:href="#g18072"
         id="use18078" />
    </clipPath>
    <clipPath
       clipPathUnits="userSpaceOnUse"
       id="clipPath18180">
      <use
         x="0"
         y="0"
         xlink:href="#g18176"
         id="use18182" />
    </clipPath>
    <linearGradient
       inkscape:collect="always"
       xlink:href="#linearGradient18235"
       id="linearGradient18237"
       x1="1884.9948"
       y1="592.42688"
       x2="1902.947"
       y2="1884.9948"
       gradientUnits="userSpaceOnUse" />
    <radialGradient
       inkscape:collect="always"
       xlink:href="#linearGradient18245"
       id="radialGradient18247"
       cx="1918.6553"
       cy="2190.1843"
       fx="1918.6553"
       fy="2190.1843"
       r="2268.7258"
       gradientTransform="matrix(1.2745972,-0.00801342,0.00605717,0.39525834,-536.93387,-428.51571)"
       gradientUnits="userSpaceOnUse" />
    <linearGradient
       inkscape:collect="always"
       xlink:href="#linearGradient20096"
       id="linearGradient20098"
       x1="1965.7803"
       y1="1005.3305"
       x2="1988.2206"
       y2="2297.8984"
       gradientUnits="userSpaceOnUse"
       gradientTransform="translate(-31.416579,-336.60621)" />
    <linearGradient
       inkscape:collect="always"
       xlink:href="#linearGradient21272"
       id="linearGradient21274"
       x1="1894.8843"
       y1="1126.5088"
       x2="1890.8118"
       y2="2360.7314"
       gradientUnits="userSpaceOnUse" />
    <linearGradient
       inkscape:collect="always"
       xlink:href="#linearGradient21288"
       id="linearGradient21282"
       x1="1768.6361"
       y1="251.3327"
       x2="1752.3461"
       y2="2284.4341"
       gradientUnits="userSpaceOnUse" />
    <linearGradient
       inkscape:collect="always"
       xlink:href="#linearGradient18235"
       id="linearGradient21290"
       gradientUnits="userSpaceOnUse"
       x1="1884.9948"
       y1="592.42688"
       x2="1902.947"
       y2="1884.9948" />
  </defs>
  <g
     inkscape:label="Layer 1"
     inkscape:groupmode="layer"
     id="layer1">
    <g
       id="g21255"
       clip-path="url(#clipPath18076)"
       inkscape:label="bg3"
       style="display:inline;stroke:none;stroke-width:0;stroke-dasharray:none"
       transform="matrix(-0.32622533,0,0,0.34815738,1223.9217,-213.53339)">
      <g
         inkscape:label="Clip"
         id="g21253"
         style="stroke:none;stroke-width:0;stroke-dasharray:none">
        <path
           style="fill:url(#linearGradient21282);fill-opacity:1;stroke:none;stroke-width:0;stroke-linecap:butt;stroke-linejoin:miter;stroke-dasharray:none;stroke-opacity:1"
           d="m -94.249738,964.93775 44.880826,-112.202 40.3927495,35.9046 L 62.833162,767.46219 184.01139,906.5927 327.63004,969.42587 c 0,0 98.73782,31.41663 116.69015,31.41663 17.95233,0 76.2974,-13.4643 89.76165,4.488 13.46425,17.9524 107.71399,80.7855 107.71399,80.7855 0,0 71.80932,26.9285 94.24973,22.4404 22.44042,-4.4881 134.64249,-89.7616 134.64249,-89.7616 l 112.20203,-76.29743 67.32132,-58.34507 40.3927,-85.27358 71.8093,31.41658 76.2974,67.32124 89.7617,76.29741 35.9047,85.27355 94.2497,31.4166 c 0,0 58.3451,31.4166 94.2497,53.857 35.9047,22.4404 116.6902,17.9523 143.6187,0 26.9285,-17.9523 67.3212,-58.3451 80.7855,-76.2974 13.4642,-17.9523 40.3927,-62.8332 49.3689,-85.27358 8.9761,-22.44042 40.3927,-44.88083 40.3927,-44.88083 0,0 107.714,-8.97617 130.1544,13.46425 22.4404,22.44041 71.8093,76.29736 80.7855,98.73786 8.9762,22.4404 237.8684,121.1782 237.8684,121.1782 l 121.1782,-58.3451 35.9047,-103.2259 22.4404,-107.71397 94.2497,-107.71399 53.857,-31.41658 c 0,0 94.2498,0 103.2259,26.9285 8.9762,26.9285 53.857,22.44041 80.7855,22.44041 26.9285,0 134.6425,-130.1544 134.6425,-130.1544 0,0 58.3451,-44.88082 80.7855,-35.90466 22.4404,8.97617 134.6425,80.78549 134.6425,80.78549 l 107.714,184.01139 80.7855,-8.97617 130.1544,31.41658 c 0,0 58.3451,-53.85699 76.2974,-62.83316 17.9523,-8.97616 130.1544,-31.41658 130.1544,-31.41658 l 224.4041,-62.83315 -4.4881,2612.06419 c 0,0 -4330.99983,17.9523 -4348.95216,-31.4166 -17.95233,-49.3689 233.38031,-2338.2912 233.38031,-2338.2912 z"
           id="path21251"
           sodipodi:nodetypes="ccccccsscscccccccccsssscssccccccsscsccccscccscc" />
      </g>
    </g>
    <g
       id="g18074"
       clip-path="url(#clipPath18076)"
       inkscape:label="bg2"
       style="display:inline;stroke:none"
       transform="matrix(0.32622533,0,0,0.34815738,27.39351,-115.10391)">
      <g
         inkscape:label="Clip"
         id="g18072"
         style="stroke:none">
        <path
           style="fill:url(#linearGradient21274);fill-opacity:1;stroke:none;stroke-width:1px;stroke-linecap:butt;stroke-linejoin:miter;stroke-opacity:1"
           d="m -94.249738,964.93775 44.880826,-112.202 40.3927495,35.9046 L 62.833162,767.46219 184.01139,906.5927 327.63004,969.42587 c 0,0 98.73782,31.41663 116.69015,31.41663 17.95233,0 76.2974,-13.4643 89.76165,4.488 13.46425,17.9524 107.71399,80.7855 107.71399,80.7855 0,0 71.80932,26.9285 94.24973,22.4404 22.44042,-4.4881 134.64249,-89.7616 134.64249,-89.7616 l 112.20203,-76.29743 67.32132,-58.34507 40.3927,-85.27358 71.8093,31.41658 76.2974,67.32124 89.7617,76.29741 35.9047,85.27355 94.2497,31.4166 c 0,0 58.3451,31.4166 94.2497,53.857 35.9047,22.4404 116.6902,17.9523 143.6187,0 26.9285,-17.9523 67.3212,-58.3451 80.7855,-76.2974 13.4642,-17.9523 40.3927,-62.8332 49.3689,-85.27358 8.9761,-22.44042 40.3927,-44.88083 40.3927,-44.88083 0,0 107.714,-8.97617 130.1544,13.46425 22.4404,22.44041 71.8093,76.29736 80.7855,98.73786 8.9762,22.4404 237.8684,121.1782 237.8684,121.1782 l 121.1782,-58.3451 35.9047,-103.2259 22.4404,-107.71397 94.2497,-107.71399 53.857,-31.41658 c 0,0 94.2498,0 103.2259,26.9285 8.9762,26.9285 53.857,22.44041 80.7855,22.44041 26.9285,0 134.6425,-130.1544 134.6425,-130.1544 0,0 58.3451,-44.88082 80.7855,-35.90466 22.4404,8.97617 134.6425,80.78549 134.6425,80.78549 l 107.714,184.01139 80.7855,-8.97617 130.1544,31.41658 c 0,0 58.3451,-53.85699 76.2974,-62.83316 17.9523,-8.97616 130.1544,-31.41658 130.1544,-31.41658 l 224.4041,-62.83315 -4.4881,2612.06419 c 0,0 -4330.99983,17.9523 -4348.95216,-31.4166 -17.95233,-49.3689 233.38031,-2338.2912 233.38031,-2338.2912 z"
           id="path18068"
           sodipodi:nodetypes="ccccccsscscccccccccsssscssccccccsscsccccscccscc" />
      </g>
    </g>
    <g
       id="g18178"
       clip-path="url(#clipPath18180)"
       inkscape:label="fg"
       transform="matrix(0.31765985,0,0,0.34648449,18.076386,83.115465)"
       style="display:inline;fill:url(#linearGradient18237);fill-opacity:1;stroke:none">
      <g
         inkscape:label="Clip"
         id="g18176"
         style="fill:url(#linearGradient21290);fill-opacity:1;stroke:none">
        <path
           style="fill:url(#linearGradient20098);fill-opacity:1;stroke:none;stroke-width:1px;stroke-linecap:butt;stroke-linejoin:miter;stroke-opacity:1"
           d="M -152.59481,798.87869 71.809321,543.05795 103.2259,659.74815 c 0,0 13.46425,-8.9762 44.88083,-76.2974 31.41658,-67.3213 76.2974,-206.45181 76.2974,-206.45181 0,0 35.90467,112.20203 49.36891,139.13051 13.46425,26.9285 53.857,89.7617 53.857,89.7617 l 40.39274,116.69014 49.36891,49.3689 89.76166,26.9285 c 0,0 85.27357,40.3928 98.73781,-4.488 13.46425,-44.8809 37.07243,-28.2497 37.07243,-28.2497 0,0 12.69421,50.7769 19.04132,50.7769 6.34711,0 42.84297,65.0578 42.84297,65.0578 0,0 60.29752,-3.1735 66.64463,1.5868 6.34711,4.7603 81.2432,58.9349 81.2432,58.9349 l 98.73782,35.9047 c 0,0 80.78547,4.488 116.69017,-4.4881 35.9046,-8.9762 35.9046,-85.2736 53.857,-116.6902 17.9523,-31.4166 85.2735,-116.6901 85.2735,-116.6901 0,0 35.9047,31.4165 49.3689,49.3689 13.4643,17.9523 85.2736,130.1544 85.2736,130.1544 l 53.857,164.43111 58.3451,-34.2767 85.2735,125.6663 c 0,0 53.857,98.7378 98.7379,89.7616 44.8808,-8.9761 130.1544,-53.857 130.1544,-53.857 l 53.857,-22.4404 66.4218,-22.4404 113.1015,-82.4134 h 31.4165 l 35.9047,28.5564 53.857,-53.857 44.8808,-67.32121 40.3928,-44.8808 c 0,0 26.9285,62.83311 44.8808,22.4404 17.9523,-40.3928 58.3451,-98.7378 58.3451,-98.7378 0,0 76.2974,-17.9524 98.7378,-35.9047 22.4404,-17.9523 76.2974,-17.9523 76.2974,-17.9523 0,0 53.857,40.3927 58.3451,53.857 4.4881,13.4642 58.3451,49.3689 58.3451,49.3689 l 26.9284,-4.4881 76.2975,-94.2497 58.345,-62.8332 98.7378,53.857 121.1783,-8.9762 107.714,-139.1305 85.2735,-76.29744 67.3213,94.24974 103.2259,-98.73784 112.202,8.9761 c 0,0 134.6425,-35.9046 134.6425,-58.345 0,-22.4404 71.8094,-89.76166 71.8094,-89.76166 l 141.8198,215.42796 190.2983,58.34514 67.3212,1624.68591 -4420.76144,166.0591 z"
           id="path18066" />
      </g>
      <ellipse
         style="display:inline;fill:url(#radialGradient18247);fill-opacity:1;stroke:none;stroke-width:28.1207;stroke-linecap:round;stroke-linejoin:round"
         id="path18134"
         cx="1921.8447"
         cy="421.79764"
         rx="4081.9111"
         ry="961.88495"
         inkscape:label="path18134" />
    </g>
  </g>
</svg>
