<?xml version="1.0" encoding="UTF-8" standalone="no"?>
<!-- Created with Inkscape (http://www.inkscape.org/) -->

<svg
   width="1280"
   height="720"
   viewBox="0 0 1280 720"
   version="1.1"
   id="svg5"
   inkscape:version="1.2.1 (9c6d41e410, 2022-07-14)"
   sodipodi:docname="mountains_test.svg"
   inkscape:export-filename="mountains_fg.svg"
   inkscape:export-xdpi="32.535511"
   inkscape:export-ydpi="32.535511"
   inkscape:dataloss="true"
   xmlns:inkscape="http://www.inkscape.org/namespaces/inkscape"
   xmlns:sodipodi="http://sodipodi.sourceforge.net/DTD/sodipodi-0.dtd"
   xmlns:xlink="http://www.w3.org/1999/xlink"
   xmlns="http://www.w3.org/2000/svg"
   xmlns:svg="http://www.w3.org/2000/svg">
  <sodipodi:namedview
     id="namedview7"
     pagecolor="#ffffff"
     bordercolor="#666666"
     borderopacity="1.0"
     inkscape:showpageshadow="2"
     inkscape:pageopacity="0.0"
     inkscape:pagecheckerboard="true"
     inkscape:deskcolor="#d1d1d1"
     inkscape:document-units="px"
     showgrid="false"
     inkscape:lockguides="false"
     inkscape:zoom="0.44562459"
     inkscape:cx="632.81966"
     inkscape:cy="421.87977"
     inkscape:window-width="1920"
     inkscape:window-height="1017"
     inkscape:window-x="-8"
     inkscape:window-y="-8"
     inkscape:window-maximized="1"
     inkscape:current-layer="g26755" />
  <defs
     id="defs2">
    <linearGradient
       inkscape:collect="always"
       id="linearGradient21288">
      <stop
         style="stop-color:#cccccc;stop-opacity:1;"
         offset="0"
         id="stop21284" />
      <stop
         style="stop-color:#ffffff;stop-opacity:1;"
         offset="1"
         id="stop21286" />
    </linearGradient>
    <linearGradient
       inkscape:collect="always"
       id="linearGradient21272">
      <stop
         style="stop-color:#999999;stop-opacity:1;"
         offset="0"
         id="stop21268" />
      <stop
         style="stop-color:#d8d8d8;stop-opacity:1;"
         offset="1"
         id="stop21270" />
    </linearGradient>
    <linearGradient
       inkscape:collect="always"
       id="linearGradient20096">
      <stop
         style="stop-color:#515151;stop-opacity:1;"
         offset="0"
         id="stop20092" />
      <stop
         style="stop-color:#ffffff;stop-opacity:1;"
         offset="1"
         id="stop20094" />
    </linearGradient>
    <linearGradient
       inkscape:collect="always"
       id="linearGradient18245">
      <stop
         style="stop-color:#000000;stop-opacity:0.64802629;"
         offset="0"
         id="stop18241" />
      <stop
         style="stop-color:#000000;stop-opacity:0;"
         offset="1"
         id="stop18243" />
    </linearGradient>
    <radialGradient
       inkscape:collect="always"
       xlink:href="#linearGradient18245"
       id="radialGradient18247"
       cx="1918.6553"
       cy="2190.1843"
       fx="1918.6553"
       fy="2190.1843"
       r="2268.7258"
       gradientTransform="matrix(0.21007449,-0.00185027,9.983246e-4,0.09126345,-165.80687,-50.930168)"
       gradientUnits="userSpaceOnUse" />
    <linearGradient
       inkscape:collect="always"
       xlink:href="#linearGradient20096"
       id="linearGradient20098"
       x1="1965.7803"
       y1="1005.3305"
       x2="1988.2206"
       y2="2297.8984"
       gradientUnits="userSpaceOnUse"
       gradientTransform="translate(28.52591,-867.84533)" />
    <linearGradient
       inkscape:collect="always"
       xlink:href="#linearGradient21272"
       id="linearGradient21274"
       x1="1894.8843"
       y1="1126.5088"
       x2="1890.8118"
       y2="2360.7314"
       gradientUnits="userSpaceOnUse" />
    <linearGradient
       inkscape:collect="always"
       xlink:href="#linearGradient21288"
       id="linearGradient21282"
       x1="1768.6361"
       y1="251.3327"
       x2="1752.3461"
       y2="2284.4341"
       gradientUnits="userSpaceOnUse" />
    <clipPath
       clipPathUnits="userSpaceOnUse"
       id="clipPath26757">
      <use
         x="0"
         y="0"
         xlink:href="#g26753"
         id="use26759" />
    </clipPath>
    <filter
       inkscape:collect="always"
       style="color-interpolation-filters:sRGB"
       id="filter27224"
       x="-0.0249338"
       y="-0.075528942"
       width="1.0498676"
       height="1.151058">
      <feGaussianBlur
         inkscape:collect="always"
         stdDeviation="13.978839"
         id="feGaussianBlur27226" />
    </filter>
    <linearGradient
       inkscape:collect="always"
       xlink:href="#linearGradient20096"
       id="linearGradient27594"
       gradientUnits="userSpaceOnUse"
       gradientTransform="translate(28.52591,-867.84533)"
       x1="1965.7803"
       y1="1005.3305"
       x2="1988.2206"
       y2="2297.8984" />
  </defs>
  <g
     inkscape:label="Layer 1"
     inkscape:groupmode="layer"
     id="layer1">
    <path
       style="display:none;fill:url(#linearGradient21282);fill-opacity:1;stroke:none;stroke-width:0;stroke-linecap:butt;stroke-linejoin:miter;stroke-dasharray:none;stroke-opacity:1"
       d="m -94.249738,964.93775 44.880826,-112.202 40.3927495,35.9046 L 62.833162,767.46219 184.01139,906.5927 327.63004,969.42587 c 0,0 98.73782,31.41663 116.69015,31.41663 17.95233,0 76.2974,-13.4643 89.76165,4.488 13.46425,17.9524 107.71399,80.7855 107.71399,80.7855 0,0 71.80932,26.9285 94.24973,22.4404 22.44042,-4.4881 134.64249,-89.7616 134.64249,-89.7616 l 112.20203,-76.29743 67.32132,-58.34507 40.3927,-85.27358 71.8093,31.41658 76.2974,67.32124 89.7617,76.29741 35.9047,85.27355 94.2497,31.4166 c 0,0 58.3451,31.4166 94.2497,53.857 35.9047,22.4404 116.6902,17.9523 143.6187,0 26.9285,-17.9523 67.3212,-58.3451 80.7855,-76.2974 13.4642,-17.9523 40.3927,-62.8332 49.3689,-85.27358 8.9761,-22.44042 40.3927,-44.88083 40.3927,-44.88083 0,0 107.714,-8.97617 130.1544,13.46425 22.4404,22.44041 71.8093,76.29736 80.7855,98.73786 8.9762,22.4404 237.8684,121.1782 237.8684,121.1782 l 121.1782,-58.3451 35.9047,-103.2259 22.4404,-107.71397 94.2497,-107.71399 53.857,-31.41658 c 0,0 94.2498,0 103.2259,26.9285 8.9762,26.9285 53.857,22.44041 80.7855,22.44041 26.9285,0 134.6425,-130.1544 134.6425,-130.1544 0,0 58.3451,-44.88082 80.7855,-35.90466 22.4404,8.97617 134.6425,80.78549 134.6425,80.78549 l 107.714,184.01139 80.7855,-8.97617 130.1544,31.41658 c 0,0 58.3451,-53.85699 76.2974,-62.83316 17.9523,-8.97616 130.1544,-31.41658 130.1544,-31.41658 l 224.4041,-62.83315 -4.4881,2612.06419 c 0,0 -4330.99983,17.9523 -4348.95216,-31.4166 -17.95233,-49.3689 233.38031,-2338.2912 233.38031,-2338.2912 z"
       id="path21251"
       sodipodi:nodetypes="ccccccsscscccccccccsssscssccccccsscsccccscccscc"
       transform="matrix(-0.32622533,0,0,0.34815739,1223.9217,-213.53339)"
       inkscape:export-filename=".\mountains_bg.svg"
       inkscape:export-xdpi="65.536812"
       inkscape:export-ydpi="65.536812" />
    <path
       style="display:none;fill:url(#linearGradient21274);fill-opacity:1;stroke:none;stroke-width:1px;stroke-linecap:butt;stroke-linejoin:miter;stroke-opacity:1"
       d="m -94.249738,964.93775 44.880826,-112.202 40.3927495,35.9046 L 62.833162,767.46219 184.01139,906.5927 327.63004,969.42587 c 0,0 98.73782,31.41663 116.69015,31.41663 17.95233,0 76.2974,-13.4643 89.76165,4.488 13.46425,17.9524 107.71399,80.7855 107.71399,80.7855 0,0 71.80932,26.9285 94.24973,22.4404 22.44042,-4.4881 134.64249,-89.7616 134.64249,-89.7616 l 112.20203,-76.29743 67.32132,-58.34507 40.3927,-85.27358 71.8093,31.41658 76.2974,67.32124 89.7617,76.29741 35.9047,85.27355 94.2497,31.4166 c 0,0 58.3451,31.4166 94.2497,53.857 35.9047,22.4404 116.6902,17.9523 143.6187,0 26.9285,-17.9523 67.3212,-58.3451 80.7855,-76.2974 13.4642,-17.9523 40.3927,-62.8332 49.3689,-85.27358 8.9761,-22.44042 40.3927,-44.88083 40.3927,-44.88083 0,0 107.714,-8.97617 130.1544,13.46425 22.4404,22.44041 71.8093,76.29736 80.7855,98.73786 8.9762,22.4404 237.8684,121.1782 237.8684,121.1782 l 121.1782,-58.3451 35.9047,-103.2259 22.4404,-107.71397 94.2497,-107.71399 53.857,-31.41658 c 0,0 94.2498,0 103.2259,26.9285 8.9762,26.9285 53.857,22.44041 80.7855,22.44041 26.9285,0 134.6425,-130.1544 134.6425,-130.1544 0,0 58.3451,-44.88082 80.7855,-35.90466 22.4404,8.97617 134.6425,80.78549 134.6425,80.78549 l 107.714,184.01139 80.7855,-8.97617 130.1544,31.41658 c 0,0 58.3451,-53.85699 76.2974,-62.83316 17.9523,-8.97616 130.1544,-31.41658 130.1544,-31.41658 l 224.4041,-62.83315 -4.4881,2612.06419 c 0,0 -4330.99983,17.9523 -4348.95216,-31.4166 -17.95233,-49.3689 233.38031,-2338.2912 233.38031,-2338.2912 z"
       id="path18068"
       sodipodi:nodetypes="ccccccsscscccccccccsssscssccccccsscsccccscccscc"
       transform="matrix(0.32622533,0,0,0.34815738,27.39351,-115.10391)" />
    <g
       id="g26755"
       clip-path="url(#clipPath26757)"
       style="display:none">
      <g
         inkscape:label="Clip"
         id="g26753">
        <path
           style="display:inline;fill:url(#linearGradient27594);fill-opacity:1;stroke:none;stroke-width:1px;stroke-linecap:butt;stroke-linejoin:miter;stroke-opacity:1"
           d="M -92.652321,267.63957 131.75181,11.818829 163.16839,128.50903 c 0,0 13.46425,-8.9762 44.88083,-76.297397 31.41658,-67.321304 76.2974,-206.451813 76.2974,-206.451813 0,0 35.90467,112.202029 49.36891,139.130509 13.46425,26.9285 53.857,89.761704 53.857,89.761704 l 40.39274,116.690137 49.36891,49.3689 89.76166,26.9285 c 0,0 85.27357,40.3928 98.73781,-4.488 13.46425,-44.8809 37.07243,-28.2497 37.07243,-28.2497 0,0 12.69421,50.7769 19.04132,50.7769 6.34711,0 42.84297,65.0578 42.84297,65.0578 0,0 60.29752,-3.1735 66.64463,1.5868 6.34711,4.7603 81.2432,58.9349 81.2432,58.9349 l 98.7378,35.9047 c 0,0 80.7855,4.488 116.6902,-4.4881 35.9046,-8.9762 35.9046,-85.2736 53.857,-116.6902 17.9523,-31.4166 85.2735,-116.6901 85.2735,-116.6901 0,0 35.9047,31.4165 49.3689,49.3689 13.4643,17.9523 85.2736,130.1544 85.2736,130.1544 l 53.857,164.43111 58.3451,-34.2767 85.2735,125.6663 c 0,0 53.857,98.7378 98.7379,89.7616 44.8808,-8.9761 130.1544,-53.857 130.1544,-53.857 l 53.857,-22.4404 66.4218,-22.4404 113.1015,-82.4134 h 31.4165 l 35.9047,28.5564 53.857,-53.857 44.8808,-67.32121 40.3928,-44.8808 c 0,0 26.9285,62.83311 44.8808,22.4404 17.9523,-40.3928 58.3451,-98.7378 58.3451,-98.7378 0,0 76.2974,-17.9524 98.7378,-35.9047 22.4404,-17.9523 76.2974,-17.9523 76.2974,-17.9523 0,0 53.857,40.3927 58.3451,53.857 4.4881,13.4642 58.3451,49.3689 58.3451,49.3689 l 26.9284,-4.4881 76.2975,-94.2497 58.345,-62.8332 98.7378,53.857 121.1783,-8.9762 107.714,-139.1305 85.2735,-76.297437 67.3213,94.249737 103.2259,-98.737837 112.202,8.9761 c 0,0 134.6425,-35.9046 134.6425,-58.3450037 0,-22.4404003 71.8094,-89.7616603 71.8094,-89.7616603 l 141.8198,215.427961 190.2983,58.34514 67.3212,1624.68583 -4420.76145,166.0591 z"
           id="path18066"
           transform="matrix(0.31765985,0,0,0.34648449,18.076386,83.115465)" />
      </g>
      <path
         id="path18134"
         style="display:inline;mix-blend-mode:normal;fill:url(#radialGradient18247);stroke-width:5.48572;stroke-linecap:round;stroke-linejoin:round;filter:url(#filter27224)"
         inkscape:label="path18134"
         d="M 912.20562,145.4035 A 672.76581,222.09508 0 0 1 239.44,367.49858 672.76581,222.09508 0 0 1 -433.32586,145.4035 672.76581,222.09508 0 0 1 239.44,-76.691581 672.76581,222.09508 0 0 1 912.20562,145.4035 Z"
         transform="matrix(1.0371958,0,0,0.92551635,62.246602,29.871507)" />
    </g>
    <path
       style="display:inline;fill:url(#linearGradient20098);fill-opacity:1;stroke:none;stroke-width:1px;stroke-linecap:butt;stroke-linejoin:miter;stroke-opacity:1"
       d="M -92.652321,267.63957 131.75181,11.818829 163.16839,128.50903 c 0,0 13.46425,-8.9762 44.88083,-76.297397 31.41658,-67.321304 76.2974,-206.451813 76.2974,-206.451813 0,0 35.90467,112.202029 49.36891,139.130509 13.46425,26.9285 53.857,89.761704 53.857,89.761704 l 40.39274,116.690137 49.36891,49.3689 89.76166,26.9285 c 0,0 85.27357,40.3928 98.73781,-4.488 13.46425,-44.8809 37.07243,-28.2497 37.07243,-28.2497 0,0 12.69421,50.7769 19.04132,50.7769 6.34711,0 42.84297,65.0578 42.84297,65.0578 0,0 60.29752,-3.1735 66.64463,1.5868 6.34711,4.7603 81.2432,58.9349 81.2432,58.9349 l 98.7378,35.9047 c 0,0 80.7855,4.488 116.6902,-4.4881 35.9046,-8.9762 35.9046,-85.2736 53.857,-116.6902 17.9523,-31.4166 85.2735,-116.6901 85.2735,-116.6901 0,0 35.9047,31.4165 49.3689,49.3689 13.4643,17.9523 85.2736,130.1544 85.2736,130.1544 l 53.857,164.43111 58.3451,-34.2767 85.2735,125.6663 c 0,0 53.857,98.7378 98.7379,89.7616 44.8808,-8.9761 130.1544,-53.857 130.1544,-53.857 l 53.857,-22.4404 66.4218,-22.4404 113.1015,-82.4134 h 31.4165 l 35.9047,28.5564 53.857,-53.857 44.8808,-67.32121 40.3928,-44.8808 c 0,0 26.9285,62.83311 44.8808,22.4404 17.9523,-40.3928 58.3451,-98.7378 58.3451,-98.7378 0,0 76.2974,-17.9524 98.7378,-35.9047 22.4404,-17.9523 76.2974,-17.9523 76.2974,-17.9523 0,0 53.857,40.3927 58.3451,53.857 4.4881,13.4642 58.3451,49.3689 58.3451,49.3689 l 26.9284,-4.4881 76.2975,-94.2497 58.345,-62.8332 98.7378,53.857 121.1783,-8.9762 107.714,-139.1305 85.2735,-76.297437 67.3213,94.249737 103.2259,-98.737837 112.202,8.9761 c 0,0 134.6425,-35.9046 134.6425,-58.3450037 0,-22.4404003 71.8094,-89.7616603 71.8094,-89.7616603 l 141.8198,215.427961 190.2983,58.34514 67.3212,1624.68583 -4420.76145,166.0591 z"
       id="path27503"
       transform="matrix(0.31765985,0,0,0.34648449,18.076386,83.115465)" />
  </g>
</svg>
