<?xml version="1.0" encoding="UTF-8" standalone="no"?>
<!-- Created with Inkscape (http://www.inkscape.org/) -->

<svg
   width="1280"
   height="720"
   viewBox="0 0 1280 720"
   version="1.1"
   id="svg5"
   inkscape:version="1.2.1 (9c6d41e410, 2022-07-14)"
   sodipodi:docname="mountains.svg"
   xmlns:inkscape="http://www.inkscape.org/namespaces/inkscape"
   xmlns:sodipodi="http://sodipodi.sourceforge.net/DTD/sodipodi-0.dtd"
   xmlns:xlink="http://www.w3.org/1999/xlink"
   xmlns="http://www.w3.org/2000/svg"
   xmlns:svg="http://www.w3.org/2000/svg">
  <sodipodi:namedview
     id="namedview7"
     pagecolor="#ffffff"
     bordercolor="#666666"
     borderopacity="1.0"
     inkscape:showpageshadow="2"
     inkscape:pageopacity="0.0"
     inkscape:pagecheckerboard="true"
     inkscape:deskcolor="#d1d1d1"
     inkscape:document-units="px"
     showgrid="false"
     inkscape:lockguides="false"
     inkscape:zoom="0.63020833"
     inkscape:cx="561.71901"
     inkscape:cy="525.22314"
     inkscape:window-width="1920"
     inkscape:window-height="1017"
     inkscape:window-x="-8"
     inkscape:window-y="-8"
     inkscape:window-maximized="1"
     inkscape:current-layer="layer1" />
  <defs
     id="defs2">
    <linearGradient
       inkscape:collect="always"
       id="linearGradient21288">
      <stop
         style="stop-color:#cccccc;stop-opacity:1;"
         offset="0"
         id="stop21284" />
      <stop
         style="stop-color:#ffffff;stop-opacity:1;"
         offset="1"
         id="stop21286" />
    </linearGradient>
    <linearGradient
       inkscape:collect="always"
       id="linearGradient21272">
      <stop
         style="stop-color:#999999;stop-opacity:1;"
         offset="0"
         id="stop21268" />
      <stop
         style="stop-color:#d8d8d8;stop-opacity:1;"
         offset="1"
         id="stop21270" />
    </linearGradient>
    <linearGradient
       inkscape:collect="always"
       id="linearGradient18235">
      <stop
         style="stop-color:#000000;stop-opacity:1;"
         offset="0"
         id="stop18231" />
      <stop
         style="stop-color:#ffffff;stop-opacity:1;"
         offset="1"
         id="stop18233" />
    </linearGradient>
    <linearGradient
       inkscape:collect="always"
       xlink:href="#linearGradient21272"
       id="linearGradient21274"
       x1="1894.8843"
       y1="1126.5088"
       x2="1890.8118"
       y2="2360.7314"
       gradientUnits="userSpaceOnUse" />
    <linearGradient
       inkscape:collect="always"
       xlink:href="#linearGradient21288"
       id="linearGradient21282"
       x1="1768.6361"
       y1="251.3327"
       x2="1752.3461"
       y2="2284.4341"
       gradientUnits="userSpaceOnUse" />
    <linearGradient
       inkscape:collect="always"
       xlink:href="#linearGradient18235"
       id="linearGradient25986"
       gradientUnits="userSpaceOnUse"
       x1="1884.9948"
       y1="592.42688"
       x2="1902.947"
       y2="1884.9948" />
  </defs>
  <g
     inkscape:label="Layer 1"
     inkscape:groupmode="layer"
     id="layer1">
    <path
       style="display:inline;fill:url(#linearGradient21282);fill-opacity:1;stroke:none;stroke-width:0;stroke-linecap:butt;stroke-linejoin:miter;stroke-dasharray:none;stroke-opacity:1"
       d="m -94.249738,964.93775 44.880826,-112.202 40.3927495,35.9046 L 62.833162,767.46219 184.01139,906.5927 327.63004,969.42587 c 0,0 98.73782,31.41663 116.69015,31.41663 17.95233,0 76.2974,-13.4643 89.76165,4.488 13.46425,17.9524 107.71399,80.7855 107.71399,80.7855 0,0 71.80932,26.9285 94.24973,22.4404 22.44042,-4.4881 134.64249,-89.7616 134.64249,-89.7616 l 112.20203,-76.29743 67.32132,-58.34507 40.3927,-85.27358 71.8093,31.41658 76.2974,67.32124 89.7617,76.29741 35.9047,85.27355 94.2497,31.4166 c 0,0 58.3451,31.4166 94.2497,53.857 35.9047,22.4404 116.6902,17.9523 143.6187,0 26.9285,-17.9523 67.3212,-58.3451 80.7855,-76.2974 13.4642,-17.9523 40.3927,-62.8332 49.3689,-85.27358 8.9761,-22.44042 40.3927,-44.88083 40.3927,-44.88083 0,0 107.714,-8.97617 130.1544,13.46425 22.4404,22.44041 71.8093,76.29736 80.7855,98.73786 8.9762,22.4404 237.8684,121.1782 237.8684,121.1782 l 121.1782,-58.3451 35.9047,-103.2259 22.4404,-107.71397 94.2497,-107.71399 53.857,-31.41658 c 0,0 94.2498,0 103.2259,26.9285 8.9762,26.9285 53.857,22.44041 80.7855,22.44041 26.9285,0 134.6425,-130.1544 134.6425,-130.1544 0,0 58.3451,-44.88082 80.7855,-35.90466 22.4404,8.97617 134.6425,80.78549 134.6425,80.78549 l 107.714,184.01139 80.7855,-8.97617 130.1544,31.41658 c 0,0 58.3451,-53.85699 76.2974,-62.83316 17.9523,-8.97616 130.1544,-31.41658 130.1544,-31.41658 l 224.4041,-62.83315 -4.4881,2612.06419 c 0,0 -4330.99983,17.9523 -4348.95216,-31.4166 -17.95233,-49.3689 233.38031,-2338.2912 233.38031,-2338.2912 z"
       id="path21251"
       sodipodi:nodetypes="ccccccsscscccccccccsssscssccccccsscsccccscccscc"
       transform="matrix(-0.32622533,0,0,0.34815739,1223.9217,-213.53339)"
       inkscape:export-filename=".\mountains_bg.svg"
       inkscape:export-xdpi="65.536812"
       inkscape:export-ydpi="65.536812" />
    <path
       style="display:inline;fill:url(#linearGradient21274);fill-opacity:1;stroke:none;stroke-width:1px;stroke-linecap:butt;stroke-linejoin:miter;stroke-opacity:1"
       d="m -94.249738,964.93775 44.880826,-112.202 40.3927495,35.9046 L 62.833162,767.46219 184.01139,906.5927 327.63004,969.42587 c 0,0 98.73782,31.41663 116.69015,31.41663 17.95233,0 76.2974,-13.4643 89.76165,4.488 13.46425,17.9524 107.71399,80.7855 107.71399,80.7855 0,0 71.80932,26.9285 94.24973,22.4404 22.44042,-4.4881 134.64249,-89.7616 134.64249,-89.7616 l 112.20203,-76.29743 67.32132,-58.34507 40.3927,-85.27358 71.8093,31.41658 76.2974,67.32124 89.7617,76.29741 35.9047,85.27355 94.2497,31.4166 c 0,0 58.3451,31.4166 94.2497,53.857 35.9047,22.4404 116.6902,17.9523 143.6187,0 26.9285,-17.9523 67.3212,-58.3451 80.7855,-76.2974 13.4642,-17.9523 40.3927,-62.8332 49.3689,-85.27358 8.9761,-22.44042 40.3927,-44.88083 40.3927,-44.88083 0,0 107.714,-8.97617 130.1544,13.46425 22.4404,22.44041 71.8093,76.29736 80.7855,98.73786 8.9762,22.4404 237.8684,121.1782 237.8684,121.1782 l 121.1782,-58.3451 35.9047,-103.2259 22.4404,-107.71397 94.2497,-107.71399 53.857,-31.41658 c 0,0 94.2498,0 103.2259,26.9285 8.9762,26.9285 53.857,22.44041 80.7855,22.44041 26.9285,0 134.6425,-130.1544 134.6425,-130.1544 0,0 58.3451,-44.88082 80.7855,-35.90466 22.4404,8.97617 134.6425,80.78549 134.6425,80.78549 l 107.714,184.01139 80.7855,-8.97617 130.1544,31.41658 c 0,0 58.3451,-53.85699 76.2974,-62.83316 17.9523,-8.97616 130.1544,-31.41658 130.1544,-31.41658 l 224.4041,-62.83315 -4.4881,2612.06419 c 0,0 -4330.99983,17.9523 -4348.95216,-31.4166 -17.95233,-49.3689 233.38031,-2338.2912 233.38031,-2338.2912 z"
       id="path18068"
       sodipodi:nodetypes="ccccccsscscccccccccsssscssccccccsscsccccscccscc"
       transform="matrix(0.32622533,0,0,0.34815738,27.39351,-115.10391)" />
  </g>
</svg>
